<?xml version="1.0" standalone="no"?><!DOCTYPE svg PUBLIC "-//W3C//DTD SVG 1.1//EN" "http://www.w3.org/Graphics/SVG/1.1/DTD/svg11.dtd"><svg t="1693290917545" class="icon" viewBox="0 0 1024 1024" version="1.1" xmlns="http://www.w3.org/2000/svg" p-id="33361" width="32" height="32" xmlns:xlink="http://www.w3.org/1999/xlink"><path d="M153.6 204.8h-51.2C45.8 204.8 0 250.6 0 307.2v614.4C0 978.2 45.8 1024 102.4 1024h51.2c56.6 0 102.4-45.8 102.4-102.4V307.2c0-56.6-45.8-102.4-102.4-102.4zM537.6 0h-51.2C429.8 0 384 45.8 384 102.4v819.2c0 56.6 45.8 102.4 102.4 102.4h51.2c56.6 0 102.4-45.8 102.4-102.4V102.4C640 45.8 594.2 0 537.6 0zM921.6 409.6h-51.2C813.8 409.6 768 455.4 768 512v409.6c0 56.6 45.8 102.4 102.4 102.4h51.2c56.6 0 102.4-45.8 102.4-102.4V512c0-56.6-45.8-102.4-102.4-102.4z" fill="#00A2FF" p-id="33362"></path></svg>